<svg xmlns="http://www.w3.org/2000/svg" xmlns:xlink="http://www.w3.org/1999/xlink" viewBox="0 0 997.78 247.85"><defs><style>.cls-1{fill:none;}.cls-2{fill:url(#Dégradé_sans_nom_36);}.cls-3{fill:url(#Dégradé_sans_nom_34);}.cls-4{fill:url(#Dégradé_sans_nom_45);}.cls-5{fill:#672266;}</style><linearGradient id="Dégradé_sans_nom_36" x1="56.08" y1="454.6" x2="399.34" y2="256.42" gradientUnits="userSpaceOnUse"><stop offset="0.03" stop-color="#272556"/><stop offset="0.66" stop-color="#854493"/><stop offset="1" stop-color="#e94c4f"/></linearGradient><linearGradient id="Dégradé_sans_nom_34" x1="1.29" y1="367.61" x2="195.81" y2="367.61" gradientUnits="userSpaceOnUse"><stop offset="0.03" stop-color="#272556"/><stop offset="0.89" stop-color="#854493"/></linearGradient><linearGradient id="Dégradé_sans_nom_45" x1="99.34" y1="429.24" x2="247.34" y2="429.24" gradientUnits="userSpaceOnUse"><stop offset="0.19" stop-color="#272556"/><stop offset="0.76" stop-color="#854493"/></linearGradient></defs><title>Javid1</title><g id="Calque_2" data-name="Calque 2"><path class="cls-1" d="M282.24,362.53c2.92.33,5.05-1.21,5.37-3.88.86-7,1.68-14,2.5-21.08q1.75-14.82,3.49-29.65,1.11-9.56,2.23-19.11a5.05,5.05,0,0,0-1.11-4.13l.11-.31a14.22,14.22,0,0,0-3.17-1.15q-18.45-2.31-36.93-4.48c-3.59-.43-5.45,1.16-5.87,4.77q-1.92,16.8-3.9,33.59c-1.38,11.89-2.79,23.78-4.12,35.68a5.74,5.74,0,0,0,.44,2.8c.78,1.89,2.52,2.34,4.37,2.56q11.88,1.41,23.74,2.86C273.67,361.51,278,362.05,282.24,362.53Z" transform="translate(-1.29 -218.35)"/><path class="cls-1" d="M314.06,295.61c-3.08-2.28-6.12-4.62-9.25-6.83-1.94-1.37-3.76-.5-4,1.8q-1.57,13.37-3.13,26.75l-4.5,38.79c-.15,1.27-.44,2.66.76,3.56s2.46.21,3.63-.29L349.6,337c2.84-1.23,5.69-2.44,8.52-3.7,2-.89,2.52-2.45,1.13-4.08-.29-.23-.83-.67-1.39-1.09Z" transform="translate(-1.29 -218.35)"/><path class="cls-1" d="M260.16,273.21a6.63,6.63,0,0,0,1.77.8c10.5,1.28,21,2.5,31.49,3.75a8.66,8.66,0,0,0,6.57-1.83c.4-.46.84-.91,1.21-1.4q9.26-12.36,18.49-24.75a8.73,8.73,0,0,0,1-1.57,1.29,1.29,0,0,0,0-1.08c-.16-.21-.71-.24-1-.16a9.32,9.32,0,0,0-1.75.61L277.58,264.9c-5.3,2.28-10.61,4.55-15.88,6.88C261.09,272.05,260.67,272.72,260.16,273.21Z" transform="translate(-1.29 -218.35)"/><path class="cls-1" d="M306.83,283.75,343,310.63l20.12,15c2.44,1.81,5,1.48,6.8-.92,2.88-3.84,5.72-7.71,8.58-11.56,4.73-6.37,9.48-12.73,14.19-19.12,1.31-1.78,1.17-3.68-.45-5.57-.11-.09-.46-.4-.83-.68l-32.7-24.32L335,245.81a4.51,4.51,0,0,0-6.8,1c-1.19,1.58-2.33,3.19-3.51,4.77l-19,25.41A4.5,4.5,0,0,0,306.83,283.75Z" transform="translate(-1.29 -218.35)"/><path class="cls-1" d="M302.1,403.91a8.71,8.71,0,0,0-.31-2.19q-6.1-14.43-12.31-28.81a18.12,18.12,0,0,0-1.1-2,9.13,9.13,0,0,0-5.71-3.2c-10.46-1.19-20.91-2.45-31.37-3.68a3.7,3.7,0,0,0-1.15,0c-.83.13-1,.65-.53,1.31a3.62,3.62,0,0,0,.77.69q6,4.53,12.09,9,18.79,14,37.6,28A7.63,7.63,0,0,0,302.1,403.91Z" transform="translate(-1.29 -218.35)"/><path class="cls-1" d="M394.23,302.19c-.2-.13-.67.18-.89.24-.35.4-.6.65-.81.92l-19,25.53a7.29,7.29,0,0,0-1,7.5c4.11,9.81,8.33,19.58,12.57,29.35.29.66,1,1.13,1.55,1.69a9.08,9.08,0,0,0,.86-2.12c1-7.9,1.88-15.82,2.8-23.73q2.21-18.76,4.4-37.53a2.17,2.17,0,0,0,0-.8C394.65,302.86,394.52,302.37,394.23,302.19Z" transform="translate(-1.29 -218.35)"/><path class="cls-1" d="M368.63,340.59c-1.52-3.55-3.7-4.41-7.26-2.87L314.9,357.79q-8.68,3.75-17.37,7.53c-2.73,1.19-3.82,3.64-2.71,6.26q7.38,17.37,14.83,34.7c1.2,2.82,3.69,3.72,6.51,2.5q32-13.83,63.94-27.66c.67-.29,1.3-.67,1.95-1,1.67-1.48,2-3.48.92-6Q375.81,357.36,368.63,340.59Z" transform="translate(-1.29 -218.35)"/><path class="cls-1" d="M314.06,295.61c-3.08-2.28-6.12-4.62-9.25-6.83-1.94-1.37-3.76-.5-4,1.8q-1.57,13.37-3.13,26.75l-4.5,38.79c-.15,1.27-.44,2.66.76,3.56s2.46.21,3.63-.29L349.6,337c2.84-1.23,5.69-2.44,8.52-3.7,2-.89,2.52-2.45,1.13-4.08-.29-.23-.83-.67-1.39-1.09Z" transform="translate(-1.29 -218.35)"/><path class="cls-1" d="M293.42,277.76a8.66,8.66,0,0,0,6.57-1.83c.4-.46.84-.91,1.21-1.4q9.26-12.36,18.49-24.75a8.73,8.73,0,0,0,1-1.57,1.29,1.29,0,0,0,0-1.08c-.16-.21-.71-.24-1-.16a9.32,9.32,0,0,0-1.75.61L277.58,264.9c-5.3,2.28-10.61,4.55-15.88,6.88-.61.27-1,.94-1.54,1.43a6.63,6.63,0,0,0,1.77.8C272.43,275.29,282.93,276.51,293.42,277.76Z" transform="translate(-1.29 -218.35)"/><path class="cls-1" d="M306.83,283.75,343,310.63l20.12,15c2.44,1.81,5,1.48,6.8-.92,2.88-3.84,5.72-7.71,8.58-11.56,4.73-6.37,9.48-12.73,14.19-19.12,1.31-1.78,1.17-3.68-.45-5.57-.11-.09-.46-.4-.83-.68l-32.7-24.32L335,245.81a4.51,4.51,0,0,0-6.8,1c-1.19,1.58-2.33,3.19-3.51,4.77l-19,25.41A4.5,4.5,0,0,0,306.83,283.75Z" transform="translate(-1.29 -218.35)"/><path class="cls-1" d="M282.24,362.53c2.92.33,5.05-1.21,5.37-3.88.86-7,1.68-14,2.5-21.08q1.75-14.82,3.49-29.65,1.11-9.56,2.23-19.11a5.05,5.05,0,0,0-1.11-4.13l.11-.31a14.22,14.22,0,0,0-3.17-1.15q-18.45-2.31-36.93-4.48c-3.59-.43-5.45,1.16-5.87,4.77q-1.92,16.8-3.9,33.59c-1.38,11.89-2.79,23.78-4.12,35.68a5.74,5.74,0,0,0,.44,2.8c.78,1.89,2.52,2.34,4.37,2.56q11.88,1.41,23.74,2.86C273.67,361.51,278,362.05,282.24,362.53Z" transform="translate(-1.29 -218.35)"/><path class="cls-1" d="M394.23,302.19c-.2-.13-.67.18-.89.24-.35.4-.6.65-.81.92l-19,25.53a7.29,7.29,0,0,0-1,7.5c4.11,9.81,8.33,19.58,12.57,29.35.29.66,1,1.13,1.55,1.69a9.08,9.08,0,0,0,.86-2.12c1-7.9,1.88-15.82,2.8-23.73q2.21-18.76,4.4-37.53a2.17,2.17,0,0,0,0-.8C394.65,302.86,394.52,302.37,394.23,302.19Z" transform="translate(-1.29 -218.35)"/><path class="cls-1" d="M368.63,340.59c-1.52-3.55-3.7-4.41-7.26-2.87L314.9,357.79q-8.68,3.75-17.37,7.53c-2.73,1.19-3.82,3.64-2.71,6.26q7.38,17.37,14.83,34.7c1.2,2.82,3.69,3.72,6.51,2.5q32-13.83,63.94-27.66c.67-.29,1.3-.67,1.95-1,1.67-1.48,2-3.48.92-6Q375.81,357.36,368.63,340.59Z" transform="translate(-1.29 -218.35)"/><path class="cls-1" d="M289.48,372.91a18.12,18.12,0,0,0-1.1-2,9.13,9.13,0,0,0-5.71-3.2c-10.46-1.19-20.91-2.45-31.37-3.68a3.7,3.7,0,0,0-1.15,0c-.83.13-1,.65-.53,1.31a3.62,3.62,0,0,0,.77.69q6,4.53,12.09,9,18.79,14,37.6,28a7.63,7.63,0,0,0,2,.77,8.71,8.71,0,0,0-.31-2.19Q295.69,387.29,289.48,372.91Z" transform="translate(-1.29 -218.35)"/><path class="cls-2" d="M408.38,272.66c-1.77-1.35-4.26-3.32-6.8-5.21q-30.46-22.68-60.94-45.34c-4.95-3.7-10.21-5-16-2.47q-38.4,16.49-76.75,33.05h0L38.33,339.33a10.75,10.75,0,0,0-6.54,7.74c-.8,4.06,1.52,6,4.12,7a12.07,12.07,0,0,0,8.67-.34L232.67,275.8c-1.21,9.95-2.31,19.91-3.47,29.86Q226.59,328,224,350.37a15.6,15.6,0,0,0-.08,2h0L53.28,426.59c-5.33,2.3-8.22,7.55-6.49,11.81h0c1.63,4,7.1,5.53,12.14,3.36l174.73-75.42h0c1,.7,1.94,1.4,2.9,2.11l57,42.42-84.75,36.66a8.42,8.42,0,0,0-4.44,10.93,7.76,7.76,0,0,0,10.25,4.17l148.28-64h0l30-12.93c5.34-2.31,8.25-6.6,9.16-12.18.77-4.75,1.15-9.56,1.71-14.35q1.89-16.15,3.79-32.31,2.48-21,5-42C413,280.49,411.64,276.76,408.38,272.66Zm-83.65-28.81c1.18-1.59,2.32-3.19,3.51-4.77a4.51,4.51,0,0,1,6.8-1q11.83,8.8,23.65,17.61l32.7,24.33c.37.27.72.58.83.68,1.62,1.89,1.76,3.79.45,5.57-4.71,6.39-9.46,12.74-14.19,19.12-2.86,3.85-5.7,7.72-8.58,11.56-1.8,2.4-4.36,2.73-6.8.92l-20.12-15-36.15-26.88c-2.42-1.8-2.84-4.38-1.05-6.79Zm33.39,81.77c-2.83,1.26-5.68,2.47-8.52,3.69l-52.06,22.37c-1.17.5-2.43,1.2-3.63.29s-.91-2.28-.76-3.56l4.5-38.79q1.56-13.37,3.13-26.74c.27-2.3,2.09-3.17,4-1.8,3.13,2.21,6.17,4.54,9.25,6.83l43.8,32.54c.56.41,1.1.86,1.39,1.09C360.64,323.17,360.12,324.73,358.12,325.62ZM261.7,264.08c5.27-2.33,10.58-4.6,15.88-6.88l40.33-17.33a10.09,10.09,0,0,1,1.75-.61c.34-.07.89,0,1,.16a1.29,1.29,0,0,1,0,1.08,9.18,9.18,0,0,1-1,1.58L301.2,266.83c-.37.49-.81.93-1.21,1.4a8.66,8.66,0,0,1-6.57,1.83c-10.49-1.26-21-2.48-31.49-3.75a6.67,6.67,0,0,1-1.77-.81C260.67,265,261.09,264.35,261.7,264.08Zm-20.42,83.8a5.74,5.74,0,0,1-.44-2.8c1.33-11.9,2.74-23.79,4.12-35.68q2-16.8,3.9-33.59c.42-3.61,2.28-5.2,5.87-4.78,12.32,1.47,24.63,2.94,36.93,4.48a15.29,15.29,0,0,1,3.17,1.15l-.11.31a5.07,5.07,0,0,1,1.11,4.14q-1.12,9.56-2.23,19.11-1.74,14.82-3.49,29.65c-.82,7-1.64,14.05-2.5,21.07-.32,2.67-2.45,4.22-5.37,3.89-4.29-.48-8.57-1-12.85-1.54-7.91-1-15.82-1.92-23.74-2.86C243.8,350.21,242.06,349.77,241.28,347.88Zm58.8,47.56q-18.82-14-37.6-28l-12.09-9a4,4,0,0,1-.77-.7c-.51-.65-.3-1.17.53-1.31a4,4,0,0,1,1.15,0c10.46,1.22,20.91,2.48,31.37,3.68a9.16,9.16,0,0,1,5.71,3.19,19.16,19.16,0,0,1,1.1,1.95q6.18,14.4,12.31,28.82a8.58,8.58,0,0,1,.31,2.19A8,8,0,0,1,300.08,395.44Zm82-23c-.65.33-1.28.71-1.95,1l-63.94,27.66c-2.82,1.22-5.31.31-6.51-2.5q-7.45-17.34-14.83-34.7c-1.11-2.62,0-5.07,2.71-6.26q8.67-3.8,17.37-7.53L361.37,330c3.56-1.53,5.74-.67,7.26,2.88q7.19,16.75,14.34,33.52C384.05,368.94,383.72,370.94,382.05,372.42Zm12.67-76.08q-2.21,18.77-4.4,37.52c-.92,7.92-1.83,15.83-2.8,23.74a8.84,8.84,0,0,1-.86,2.11c-.53-.56-1.26-1-1.55-1.69-4.24-9.76-8.46-19.53-12.57-29.35a7.27,7.27,0,0,1,1-7.49l19-25.53c.21-.28.46-.52.81-.92.22-.07.69-.37.89-.24a1.78,1.78,0,0,1,.52,1A2.23,2.23,0,0,1,394.72,296.34Z" transform="translate(-1.29 -218.35)"/><path class="cls-3" d="M192.76,323.22a7,7,0,0,0-7.81-1.58L8.28,398C3,400.29.07,405.55,1.79,409.8h0c1.64,4,7.11,5.54,12.14,3.36L191.1,336.69a7.8,7.8,0,0,0,2.54-12.57Z" transform="translate(-1.29 -218.35)"/><path class="cls-4" d="M244.33,394.81c-1.8-2.2-4.33-3.08-6.36-2.2L104.12,450.52A8.24,8.24,0,0,0,100,461.31h0a7.6,7.6,0,0,0,10,4.3l134.24-58c3.79-1.64,4.26-7.76.91-11.87Z" transform="translate(-1.29 -218.35)"/></g><g id="Calque_3" data-name="Calque 3"><path class="cls-5" d="M466.81,318.63,483,316.4l-11.45,65.13H455.76Zm4.87-27.37L487.87,289l-3.16,17.89-16.19,2.37Z" transform="translate(-1.29 -218.35)"/><path class="cls-5" d="M535.5,335.87a9.58,9.58,0,0,0,.13-1.71c0-1.71-.79-2.76-3.29-2.76-4.21,0-13.16,4-19.08,7.5l-7.5,42.63H490l11-62.77,13.69-2.36-.26,7.76c8.42-4.61,18.42-8,25.92-8,8.82,0,11.71,5.79,11.71,12.77a30.56,30.56,0,0,1-.66,6.31l-8.16,46.32H527.47Z" transform="translate(-1.29 -218.35)"/><path class="cls-5" d="M605.24,330.34H590.5l-9.6,54.22c-1.85,10.4-5.66,16.84-13.95,24.21l-10.14-9.47c5.14-5,7.37-9.21,8.56-16.19l9.34-52.77h-9.87l2.24-12.89H577l1.58-9.21c2.37-13.56,7.89-19.61,24.08-19.61a92.87,92.87,0,0,1,20.13,2.63L638.93,289l-16.32,92.5H606.82l13.82-78.29a104,104,0,0,0-17.77-2c-5.53,0-7.63,1.85-8.42,6.32l-1.71,9.87h15.92Z" transform="translate(-1.29 -218.35)"/><path class="cls-5" d="M659.45,363.11a11.28,11.28,0,0,0-.13,1.71c0,1.71.79,2.77,3.29,2.77,4.21,0,13.16-3.95,19.08-7.51l7.24-41.45,16.18-2.23-11.45,65.13H680.24l.26-6.71c-8.42,4.61-18.42,8-25.92,8-8.82,0-11.71-5.79-11.71-12.76a30.74,30.74,0,0,1,.66-6.32l7.89-45.14,16.19-2.23Z" transform="translate(-1.29 -218.35)"/><path class="cls-5" d="M731.82,349.29,718,319.16l14.74-2.76,9.61,22.76,15.79-21.71h17l-26.19,33.82L763,381.53H747.09L738.27,363l-15.4,18.55H706Z" transform="translate(-1.29 -218.35)"/><path class="cls-5" d="M824.59,381.53H811.3l-.13-7.1c-5.53,5-12.37,8.42-20.92,8.42-11.06,0-14.87-5.92-14.87-14.61a41.85,41.85,0,0,1,.65-6.71l3.29-18.68c3-17.37,7.11-26.72,31.85-26.72,6.18,0,17.63,2,24.21,4.08Zm-6.71-51.19a49.94,49.94,0,0,0-9.08-.92c-10.13,0-12.11,4.21-13.55,12.64l-4,22.5a8.3,8.3,0,0,0-.13,1.58c0,2.37,1.44,3.42,4.34,3.42,5,0,12.24-4.74,17.11-9.61Z" transform="translate(-1.29 -218.35)"/><path class="cls-5" d="M858.27,291.26,874.46,289l-5.79,32.76a41.23,41.23,0,0,1,20.26-5.66c11.06,0,14.87,5.92,14.87,14.61a41.74,41.74,0,0,1-.65,6.71l-3.29,18.69c-3.42,19.21-10,26.71-33,26.71a92.51,92.51,0,0,1-24-4.21Zm2.11,77.38a52.8,52.8,0,0,0,9.34.92c10.13,0,12.77-4.21,14.21-12.63l4-22.51a8.26,8.26,0,0,0,.13-1.57c0-2.37-1.58-3.43-4.47-3.43-5,0-11.58,2.24-17.24,5.93Z" transform="translate(-1.29 -218.35)"/><path class="cls-5" d="M926.43,291.26,942.62,289l-16.32,92.5H910.51Z" transform="translate(-1.29 -218.35)"/><path class="cls-5" d="M961.17,362.85c-.66,3.68-.79,6.84,5,6.84,6.84,0,16.32-3.16,24.61-7.37l3.42,12.11a62.5,62.5,0,0,1-30.27,8.42c-17,0-20.39-9.47-18-22.9l3.42-19.47c2.76-15.14,9.87-24.35,29.21-24.35,12.24,0,20.53,6.32,20.53,16.72,0,11.44-7.5,18-25,23.42-7.77,2.37-9.35,2.76-12.37,3.55Zm22.77-29.35c0-2.89-2.5-5-6.71-5-7.24,0-10.8,4.48-11.85,10.53l-1.18,6.58c2.23-.66,3.16-.92,9.6-2.9C980.91,340.48,983.94,337.71,983.94,333.5Z" transform="translate(-1.29 -218.35)"/></g></svg>